<svg width="42" height="46" viewBox="0 0 42 46" fill="none" xmlns="http://www.w3.org/2000/svg">
<path d="M39.9997 2L37.8887 4.17356" stroke="#3763A5" stroke-width="4" stroke-linecap="round" stroke-linejoin="round"/>
<path d="M2 2L4.11107 4.17356" stroke="#3763A5" stroke-width="4" stroke-linecap="round" stroke-linejoin="round"/>
<path d="M39.9997 32.4297L37.8887 30.2561" stroke="#3763A5" stroke-width="4" stroke-linecap="round" stroke-linejoin="round"/>
<path d="M2 32.4298L4.11107 30.2562" stroke="#3763A5" stroke-width="4" stroke-linecap="round" stroke-linejoin="round"/>
<path d="M14.666 36.7769H27.3325" stroke="#3763A5" stroke-width="4" stroke-linecap="round" stroke-linejoin="round"/>
<path d="M16.7773 43.2976H25.2216" stroke="#3763A5" stroke-width="4" stroke-linecap="round" stroke-linejoin="round"/>
<path d="M20.9991 4.17358C12.5546 4.17358 8.23148 8.41265 8.33279 15.0414C8.38217 18.2732 9.38801 20.4753 11.4994 22.6488C13.6108 24.8224 14.6663 25.9092 14.666 30.2563H27.3323C27.3328 25.9094 28.3883 24.8224 30.4987 22.649C32.6096 20.4755 33.6164 18.2732 33.6656 15.0414C33.7669 8.41265 29.4438 4.17358 20.9991 4.17358Z" stroke="#3763A5" stroke-width="4" stroke-linecap="round" stroke-linejoin="round"/>
</svg>
