<svg width="46" height="44" viewBox="0 0 46 44" fill="none" xmlns="http://www.w3.org/2000/svg">
<path d="M39.7348 18.7712C39.7348 9.50872 32.2261 2 22.9636 2C13.7011 2 6.19238 9.50872 6.19238 18.7712" stroke="#3763A5" stroke-width="4" stroke-linecap="round" stroke-linejoin="round"/>
<path d="M2 28.0759V24.1413C2 22.2173 3.30939 20.5404 5.1759 20.0737L8.82269 19.162C9.61658 18.9634 10.3856 19.5639 10.3856 20.3823V31.8349C10.3856 32.6534 9.61658 33.2538 8.82269 33.0552L5.1759 32.1435C3.30939 31.6769 2 29.9999 2 28.0759Z" stroke="#3763A5" stroke-width="4"/>
<path d="M43.9276 28.0759V24.1413C43.9276 22.2173 42.6182 20.5404 40.7518 20.0737L37.1049 19.162C36.311 18.9634 35.542 19.5639 35.542 20.3823V31.8349C35.542 32.6534 36.311 33.2538 37.1049 33.0552L40.7518 32.1435C42.6182 31.6769 43.9276 29.9999 43.9276 28.0759Z" stroke="#3763A5" stroke-width="4"/>
<path d="M39.7353 33.446V34.4942C39.7353 36.8099 37.8582 38.687 35.5425 38.687H28.2051" stroke="#3763A5" stroke-width="4"/>
<path d="M26.1086 41.8317H19.8194C18.0827 41.8317 16.6748 40.4237 16.6748 38.6871C16.6748 36.9504 18.0827 35.5425 19.8194 35.5425H26.1086C27.8453 35.5425 29.2532 36.9504 29.2532 38.6871C29.2532 40.4237 27.8453 41.8317 26.1086 41.8317Z" stroke="#3763A5" stroke-width="4"/>
</svg>
