<svg width="67" height="64" viewBox="0 0 67 64" fill="none" xmlns="http://www.w3.org/2000/svg">
<path d="M33.3292 39.8947C43.7107 39.8947 52.1267 31.4117 52.1267 20.9474C52.1267 10.483 43.7107 2 33.3292 2C22.9476 2 14.5317 10.483 14.5317 20.9474C14.5317 31.4117 22.9476 39.8947 33.3292 39.8947Z" stroke="#627BBC" stroke-width="4" stroke-linecap="round" stroke-linejoin="round"/>
<path d="M45.8607 62C56.2422 62 64.6582 53.517 64.6582 43.0527C64.6582 32.5883 56.2422 24.1053 45.8607 24.1053C35.4792 24.1053 27.0632 32.5883 27.0632 43.0527C27.0632 53.517 35.4792 62 45.8607 62Z" stroke="#627BBC" stroke-width="4" stroke-linecap="round" stroke-linejoin="round"/>
<path d="M20.7975 62C31.179 62 39.5949 53.517 39.5949 43.0526C39.5949 32.5883 31.179 24.1053 20.7975 24.1053C10.4159 24.1053 2 32.5883 2 43.0526C2 53.517 10.4159 62 20.7975 62Z" stroke="#627BBC" stroke-width="4" stroke-linecap="round" stroke-linejoin="round"/>
</svg>
