<svg width="32" height="32" viewBox="0 0 32 32" fill="none" xmlns="http://www.w3.org/2000/svg">
<path d="M26.2401 2.56006H5.76006C3.99366 2.56006 2.56006 3.99366 2.56006 5.76006V26.2401C2.56006 28.0065 3.99366 29.4401 5.76006 29.4401H26.2401C28.0065 29.4401 29.4401 28.0065 29.4401 26.2401V5.76006C29.4401 3.99366 28.0065 2.56006 26.2401 2.56006ZM10.8801 12.8001V24.9601H7.04006V12.8001H10.8801ZM7.04006 9.26086C7.04006 8.36486 7.80806 7.68006 8.96006 7.68006C10.1121 7.68006 10.8353 8.36486 10.8801 9.26086C10.8801 10.1569 10.1633 10.8801 8.96006 10.8801C7.80806 10.8801 7.04006 10.1569 7.04006 9.26086ZM24.9601 24.9601H21.1201C21.1201 24.9601 21.1201 19.0337 21.1201 18.5601C21.1201 17.2801 20.4801 16.0001 18.8801 15.9745H18.8289C17.2801 15.9745 16.6401 17.2929 16.6401 18.5601C16.6401 19.1425 16.6401 24.9601 16.6401 24.9601H12.8001V12.8001H16.6401V14.4385C16.6401 14.4385 17.8753 12.8001 20.3585 12.8001C22.8993 12.8001 24.9601 14.5473 24.9601 18.0865V24.9601Z" fill="white"/>
</svg>
