<svg width="46" height="43" viewBox="0 0 46 43" fill="none" xmlns="http://www.w3.org/2000/svg">
<path d="M38.0821 40.2373C39.7901 40.2373 41.1749 38.9533 41.1749 37.3695C41.1749 35.7857 39.7901 34.5017 38.0821 34.5017C36.374 34.5017 34.9893 35.7857 34.9893 37.3695C34.9893 38.9533 36.374 40.2373 38.0821 40.2373Z" fill="black" stroke="#3763A5" stroke-width="4" stroke-linecap="round" stroke-linejoin="round"/>
<path d="M17.4639 40.2373C19.1719 40.2373 20.5567 38.9533 20.5567 37.3695C20.5567 35.7857 19.1719 34.5017 17.4639 34.5017C15.7558 34.5017 14.3711 35.7857 14.3711 37.3695C14.3711 38.9533 15.7558 40.2373 17.4639 40.2373Z" fill="black" stroke="#3763A5" stroke-width="4" stroke-linecap="round" stroke-linejoin="round"/>
<path d="M8.1856 5.82373H43.2373L39.1136 26.8543H12.3093L8.1856 5.82373ZM8.1856 5.82373C7.84195 4.54915 6.12373 2 2 2" stroke="#3763A5" stroke-width="4" stroke-linecap="round" stroke-linejoin="round"/>
<path d="M39.113 26.8542H12.3087H8.66076C4.98175 26.8542 3.03027 28.3478 3.03027 30.678C3.03027 33.0082 4.98175 34.5017 8.66076 34.5017H38.082" stroke="#3763A5" stroke-width="4" stroke-linecap="round" stroke-linejoin="round"/>
</svg>
