<svg width="23" height="24" viewBox="0 0 23 24" fill="none" xmlns="http://www.w3.org/2000/svg">
<path d="M17.9861 18.8524H21.2048C21.5819 18.8524 21.8876 18.5468 21.8876 18.1697V10.8871C21.8876 8.37328 19.8497 6.33545 17.3359 6.33545H5.95689C3.4431 6.33545 1.40527 8.37328 1.40527 10.8871V18.1697C1.40527 18.5468 1.71095 18.8524 2.08802 18.8524H5.30666" stroke="black" stroke-width="2.17772"/>
<path d="M7.09473 6.33531V2.46643C7.09473 2.08937 7.4004 1.78369 7.77747 1.78369H15.5152C15.8923 1.78369 16.198 2.08937 16.198 2.46643V6.33531" stroke="black" stroke-width="2.17772"/>
<path d="M4.93082 21.4868L5.30716 18.8524L5.87365 14.8869C5.92171 14.5507 6.20977 14.3008 6.54954 14.3008H16.7443C17.0841 14.3008 17.3721 14.5507 17.4202 14.8869L17.9867 18.8524L18.363 21.4868C18.4218 21.8981 18.1026 22.2661 17.6872 22.2661H5.6067C5.19122 22.2661 4.87206 21.8981 4.93082 21.4868Z" stroke="black" stroke-width="2.17772"/>
<path d="M17.3359 9.76045L17.3473 9.7478" stroke="black" stroke-width="2.17772" stroke-linecap="round" stroke-linejoin="round"/>
</svg>
