<svg width="59" height="64" viewBox="0 0 59 64" fill="none" xmlns="http://www.w3.org/2000/svg">
<path d="M53.9195 31.8351V13.1838C53.9195 12.709 53.7144 12.2537 53.3494 11.918L43.1323 2.52432C42.7672 2.18859 42.272 2 41.7558 2H3.94698C2.8717 2 2 2.80146 2 3.7901V59.88C2 60.8688 2.8717 61.6701 3.94698 61.6701H24.7148" stroke="#627BBC" stroke-width="4" stroke-linecap="round" stroke-linejoin="round"/>
<path d="M14.9797 25.868H40.9395M14.9797 13.934H27.9596M14.9797 37.802H24.7146" stroke="#627BBC" stroke-width="4" stroke-linecap="round" stroke-linejoin="round"/>
<path d="M47.2808 46.5718L50.5258 43.5883C51.9468 42.2818 54.2507 42.2818 55.6717 43.5883C57.0926 44.8947 57.0926 47.013 55.6717 48.3195L52.4267 51.303M47.2808 46.5718L37.5748 55.4957C37.0884 55.943 36.7691 56.5209 36.6633 57.1456L35.8757 61.7891L40.9259 61.0653C41.6057 60.9678 42.2339 60.6742 42.7204 60.227L52.4267 51.303M47.2808 46.5718L52.4267 51.303" stroke="#627BBC" stroke-width="4" stroke-linecap="round" stroke-linejoin="round"/>
<path d="M40.9397 2V12.1439C40.9397 13.1326 41.8113 13.934 42.8867 13.934H53.9196" stroke="#627BBC" stroke-width="4" stroke-linecap="round" stroke-linejoin="round"/>
</svg>
