<svg width="32" height="32" viewBox="0 0 32 32" fill="none" xmlns="http://www.w3.org/2000/svg">
<g clip-path="url(#clip0_595_20)">
<path d="M32.04 6.68021C30.8575 7.20521 29.59 7.55771 28.2575 7.71771C29.6175 6.90271 30.6625 5.61271 31.1525 4.07771C29.8825 4.83021 28.47 5.37771 26.9725 5.67271C25.7725 4.39271 24.0625 3.59521 22.17 3.59521C18.535 3.59521 15.5875 6.54021 15.5875 10.1752C15.5875 10.6902 15.6475 11.1927 15.76 11.6752C10.29 11.4002 5.44252 8.78021 2.19502 4.79771C1.62752 5.77271 1.30502 6.90271 1.30502 8.10771C1.30502 10.3902 2.46502 12.4052 4.23252 13.5877C3.15252 13.5527 2.13752 13.2552 1.25002 12.7627C1.25002 12.7902 1.25002 12.8177 1.25002 12.8452C1.25002 16.0352 3.52002 18.6927 6.52752 19.3002C5.97752 19.4502 5.39502 19.5302 4.79502 19.5302C4.37002 19.5302 3.95752 19.4902 3.55502 19.4102C4.39502 22.0227 6.82502 23.9302 9.70252 23.9827C7.45252 25.7477 4.61502 26.7977 1.53002 26.7977C0.997525 26.7977 0.475025 26.7677 -0.0374756 26.7052C2.87252 28.5752 6.33252 29.6627 10.05 29.6627C22.155 29.6627 28.775 19.6352 28.775 10.9402C28.775 10.6552 28.7675 10.3677 28.7575 10.0877C30.0425 9.16021 31.1575 8.00021 32.04 6.68021Z" fill="white"/>
</g>
<defs>
<clipPath id="clip0_595_20">
<rect width="32" height="32" fill="white"/>
</clipPath>
</defs>
</svg>
